<svg width="287" height="412" viewBox="0 0 287 412" fill="none" xmlns="http://www.w3.org/2000/svg">
<g id="logo_svg" clip-path="url(#clip0_1_3)">
<g id="Lines">
<path id="line_1" d="M272.14 0H157.07C149.338 0 143.07 6.26801 143.07 14C143.07 21.732 149.338 28 157.07 28H272.14C279.872 28 286.14 21.732 286.14 14C286.14 6.26801 279.872 0 272.14 0Z" fill="white"/>
<path id="line_2" d="M272.14 46.29H157.07C149.338 46.29 143.07 52.558 143.07 60.29C143.07 68.022 149.338 74.29 157.07 74.29H272.14C279.872 74.29 286.14 68.022 286.14 60.29C286.14 52.558 279.872 46.29 272.14 46.29Z" fill="white"/>
<path id="line_3" d="M129.07 80H14C6.26801 80 0 86.268 0 94C0 101.732 6.26801 108 14 108H129.07C136.802 108 143.07 101.732 143.07 94C143.07 86.268 136.802 80 129.07 80Z" fill="white"/>
<path id="line_4" d="M129.07 126.29H14C6.26801 126.29 0 132.558 0 140.29C0 148.022 6.26801 154.29 14 154.29H129.07C136.802 154.29 143.07 148.022 143.07 140.29C143.07 132.558 136.802 126.29 129.07 126.29Z" fill="white"/>
<path id="line_5" d="M207.89 171.57H92.82C85.088 171.57 78.82 177.838 78.82 185.57C78.82 193.302 85.088 199.57 92.82 199.57H207.89C215.622 199.57 221.89 193.302 221.89 185.57C221.89 177.838 215.622 171.57 207.89 171.57Z" fill="white"/>
<path id="line_6" d="M207.89 217.86H92.82C85.088 217.86 78.82 224.128 78.82 231.86C78.82 239.592 85.088 245.86 92.82 245.86H207.89C215.622 245.86 221.89 239.592 221.89 231.86C221.89 224.128 215.622 217.86 207.89 217.86Z" fill="white"/>
<path id="line_7" d="M272.89 263.14H157.82C150.088 263.14 143.82 269.408 143.82 277.14C143.82 284.872 150.088 291.14 157.82 291.14H272.89C280.622 291.14 286.89 284.872 286.89 277.14C286.89 269.408 280.622 263.14 272.89 263.14Z" fill="white"/>
<path id="line_8" d="M272.89 309.43H157.82C150.088 309.43 143.82 315.698 143.82 323.43C143.82 331.162 150.088 337.43 157.82 337.43H272.89C280.622 337.43 286.89 331.162 286.89 323.43C286.89 315.698 280.622 309.43 272.89 309.43Z" fill="white"/>
<path id="line_9" d="M129.07 337.71H14C6.26801 337.71 0 343.978 0 351.71C0 359.442 6.26801 365.71 14 365.71H129.07C136.802 365.71 143.07 359.442 143.07 351.71C143.07 343.978 136.802 337.71 129.07 337.71Z" fill="white"/>
<path id="line_10" d="M129.07 384H14C6.26801 384 0 390.268 0 398C0 405.732 6.26801 412 14 412H129.07C136.802 412 143.07 405.732 143.07 398C143.07 390.268 136.802 384 129.07 384Z" fill="white"/>
</g>
</g>
<defs>
<clipPath id="clip0_1_3">
<rect width="286.9" height="412" fill="white"/>
</clipPath>
</defs>
</svg>
